<?xml version="1.0" encoding="UTF-8"?>
<svg xmlns="http://www.w3.org/2000/svg" viewBox="0 0 612 792">
  <defs>
    <style>
      .cls-1 {
        fill: #7b112e;
      }

      .cls-2 {
        fill: #2c1315;
      }

      .cls-3 {
        fill: #cdcce2;
        stroke: #cdcce2;
        stroke-miterlimit: 10;
      }
    </style>
  </defs>
  <g id="Layer_4" data-name="Layer 4">
    <polygon class="cls-2" points="58.91 537.71 60.69 316.13 101.32 316.13 101.32 414.32 132.77 317.91 184.08 318.21 139.29 417.28 184.08 545.13 130.69 543.05 107.85 458.22 99.54 473.64 99.84 541.27 58.91 537.71"/>
    <polygon class="cls-2" points="199.9 318.31 197.93 545.13 249.74 547.3 252.5 320.68 199.9 318.31"/>
    <polygon class="cls-2" points="271.09 322.66 330.42 322.66 341.1 480.86 369.18 328.99 411.1 328.59 427.71 485.61 446.7 330.57 490.99 332.15 450.45 553.63 410.11 555.61 385 425.49 355.66 551.4 312.55 552.99 271.09 322.66"/>
    <polygon class="cls-2" points="507.4 333.93 546.56 336.9 539.44 554.62 500.88 554.62 507.4 333.93"/>
  </g>
  <g id="Layer_3" data-name="Layer 3">
    <polygon class="cls-1" points="58.91 519.77 60.69 298.19 101.32 298.19 101.32 396.38 132.77 299.97 184.08 300.27 139.29 399.34 184.08 527.19 130.69 525.11 107.85 440.28 99.54 455.7 99.84 523.33 58.91 519.77"/>
    <polygon class="cls-1" points="199.9 300.37 197.93 527.19 249.74 529.37 252.5 302.74 199.9 300.37"/>
    <polygon class="cls-1" points="271.09 304.72 330.42 304.72 341.1 462.92 369.18 311.05 411.1 310.65 427.71 467.67 446.7 312.63 490.99 314.21 450.45 535.69 410.11 537.67 385 407.55 355.66 533.47 312.55 535.05 271.09 304.72"/>
    <polygon class="cls-1" points="507.4 315.99 546.56 318.96 539.44 536.68 500.88 536.68 507.4 315.99"/>
  </g>
  <g id="Layer_2" data-name="Layer 2">
    <path class="cls-3" d="m209.59,273.48l16.22-2.37s-7.12,17.6-5.34,18.59,12.26-16.22,26.1-18.59c13.84-2.37,8.31,18.63,8.31,18.63,0,0,21.16-19.03,28.08-16.06,6.92,2.97,12.66,2.37-.99,43.11,0,0-3.16,19.97,19.38-5.34,0,0,.79-1.19,9.1-32.04,0,0,5.93-3.56,18.19-2.18l-11.27,37.18s-2.57,18.98,15.23.79,26.3-36.19,26.3-36.19c0,0,4.15,1.19,14.24-.79,0,0-3.96,9.1,0,14.24s12.26,19.38,3.76,30.45c-8.5,11.07-19.97,18.19-31.64,15.42,0,0-17.6-4.35-7.71-13.45s9.49-3.36,9.49-3.36l2.77,6.72s21.59,8.07,13.84-17.8c0,0-6.13-10.09-7.51-14.44s-21.75,35-37.77,39.35c-16.02,4.35-17.8-13.64-17.8-13.64,0,0-18.98,18.79-29.66,13.45s-5.34-25.31-5.34-25.31l4.55-13.25s5.73-16.81-8.31-4.75c0,0-4.35,2.57-8.5,8.9-4.15,6.33-7.91,29.46-7.91,29.46l-17.6,3.36,9.49-38.96s3.76-20.17-13.05-.79c0,0-5.54,6.48-7.91,11.25s-2.18,23.95-2.18,23.95l-15.42,2.97v-20.96s-.35-6.72,10.88-37.57Z"/>
    <path class="cls-3" d="m324.46,249.33c.06,0,.12.01.19.02,8.55.82,10.38,12.57,2.46,15.88-.11.05-.23.09-.34.14s-.22.08-.33.13c-7.23,2.69-13.86-5.19-10.04-11.9l.07-.12c1.62-2.84,4.75-4.46,8-4.15Z"/>
    <path class="cls-3" d="m391.32,316.98s11.07-9.89,22.15-34.41l15.42-2.18s-3.16,14.83,0,16.81,10.69,16.71,0,31.24c-8.3,11.29-13.61,11.95-15.34,12.9,0,0-13.13,6.08-20.65-8.95,0,0,4.94-8.5,9.1-10.48,4.15-1.98,4.35,8.9,4.35,8.9,0,0,4.94,7.12,12.85-1.78s-2.97-21.55-2.97-21.55l-4.55-7.71-17.8,23.14-2.57-5.93Z"/>
  </g>
</svg>